<?xml version="1.0" encoding="UTF-8" standalone="no"?>
<!-- Created with Inkscape (http://www.inkscape.org/) -->

<svg
   width="512"
   height="512"
   viewBox="0 0 512 512"
   version="1.1"
   id="svg5"
   xmlns:xlink="http://www.w3.org/1999/xlink"
   xmlns="http://www.w3.org/2000/svg"
   xmlns:svg="http://www.w3.org/2000/svg">
  <defs
     id="defs2">
    <linearGradient
       id="linearGradient6149">
      <stop
         style="stop-color:#5320c9;stop-opacity:1"
         offset="0"
         id="stop6145" />
      <stop
         style="stop-color:#ee1a40;stop-opacity:1"
         offset="1"
         id="stop6147" />
    </linearGradient>
    <linearGradient
       xlink:href="#linearGradient6149"
       id="linearGradient6151"
       x1="-22.778492"
       y1="396.91544"
       x2="530.76538"
       y2="33.482178"
       gradientUnits="userSpaceOnUse" />
  </defs>
  <g
     id="layer1"
     style="display:inline">
    <circle
       style="fill:url(#linearGradient6151);fill-opacity:1;stroke:#ffffff;stroke-width:0;stroke-linejoin:round;stroke-miterlimit:4;stroke-dasharray:none;stroke-opacity:1;paint-order:fill markers stroke"
       id="path6143"
       cx="257.04309"
       cy="257.04309"
       r="251.81511" />
  </g>
  <g
     id="layer2"
     style="display:inline">
    <g
       id="g38739"
       style="display:inline"
       transform="translate(-16.019254,3.6967509)">
      <path
         style="color:#000000;fill:#ffffff;stroke-width:1.08285;stroke-linejoin:round;stroke-dashoffset:200;-inkscape-stroke:none;paint-order:stroke fill markers"
         d="m 375.06167,216.37444 c -23.70062,-2.12143 -48.44201,0.79466 -70.40212,6.44214 -15.95769,4.10384 -18.94953,14.80516 -29.35698,0.63346 -5.76259,-7.84684 -19.73352,-0.81285 -21.05036,4.98859 -5.5399,24.4076 -21.26522,21.5355 -45.54878,14.35938 -20.87403,-6.16855 -58.82294,-17.98817 -67.20048,-1.23544 -6.40216,12.80251 0.53538,40.49773 11.41612,45.98742 10.85766,5.47807 27.99203,6.55759 30.34283,-5.90757 2.3508,-12.46514 -25.55941,-13.12039 -17.20795,-23.6166 8.35146,-10.4962 42.59208,10.59391 61.82657,9.65031 57.39814,-2.81586 53.9985,-19.2063 81.78273,-24.95198 44.83185,-9.27109 83.13737,-11.01933 82.14238,5.90329 -0.995,16.92263 -11.76044,7.71655 -21.59836,26.81128 -4.89062,9.49238 -5.71676,24.36412 10.62641,25.9691 15.95447,1.56681 2.5838,-25.39984 28.15553,-34.29554 18.04734,-6.27815 11.43628,-24.81054 -0.66166,-37.3045 -9.26969,-9.57312 -22.32327,-12.45387 -33.26588,-13.43334 z"
         id="path12463" />
      <path
         style="display:inline;fill:#ffffff;fill-opacity:1;stroke:#ffffff;stroke-width:37.8996;stroke-linecap:butt;stroke-linejoin:round;stroke-miterlimit:4;stroke-dasharray:none;stroke-dashoffset:200;stroke-opacity:1;paint-order:fill markers stroke"
         d="m 101.9077,313.52305 c -14.945073,-2.75972 -17.812745,2.40163 -11.899157,9.34195 5.913588,6.94033 20.605937,15.65857 28.345967,28.30293 7.74003,12.64436 8.52741,29.21246 17.48626,31.15148 8.95886,1.93903 26.08926,-10.74984 43.94135,-11.86861 17.8521,-1.11878 36.42086,9.33066 46.63837,7.89825 10.2175,-1.43241 12.08071,-14.74621 16.98547,-23.69928 4.90477,-8.95307 12.84991,-13.54168 12.8478,-20.94468 -0.002,-7.40299 -7.9524,-17.6223 -23.50385,-17.43561 -15.55145,0.18669 -38.70287,10.78033 -63.78936,10.73721 -25.08648,-0.0431 -52.10778,-10.72392 -67.05285,-13.48364 z"
         id="path1022-8-4" />
      <path
         style="display:inline;fill:#ffffff;fill-opacity:1;stroke:#ffffff;stroke-width:37.8996;stroke-linecap:butt;stroke-linejoin:round;stroke-miterlimit:4;stroke-dasharray:none;stroke-dashoffset:200;stroke-opacity:1;paint-order:fill markers stroke"
         d="m 170.88077,85.743011 c -9.43015,7.284956 -10.00087,23.800479 -4.09655,36.754609 5.90433,12.95412 18.2815,22.34798 19.14436,32.38015 0.86286,10.03216 -9.78839,20.70219 -7.89368,27.53743 1.8947,6.83524 16.3342,9.83703 32.10093,10.16559 15.76672,0.32856 32.86102,-2.01601 48.91532,-6.19166 16.05429,-4.17565 31.06706,-10.18153 47.2756,-10.15142 16.20855,0.0301 33.60258,6.09543 37.60728,1.85151 4.0047,-4.24391 -5.38286,-18.79844 -4.83915,-32.09754 0.54372,-13.2991 11.02,-25.34242 8.2179,-32.91811 -2.8021,-7.57569 -18.88339,-10.68338 -32.00526,-10.55357 -13.12187,0.12982 -23.28327,3.49749 -39.19205,0.67479 -15.90878,-2.82269 -37.56162,-11.834986 -57.53764,-17.314263 -19.97602,-5.479277 -38.2669,-7.422473 -47.69706,-0.137516 z"
         id="path1022-8-4-26" />
      <path
         style="display:inline;fill:#ffffff;fill-opacity:1;stroke:#ffffff;stroke-width:37.8996;stroke-linecap:butt;stroke-linejoin:round;stroke-miterlimit:4;stroke-dasharray:none;stroke-dashoffset:200;stroke-opacity:1;paint-order:fill markers stroke"
         d="m 310.12447,319.60566 c -4.76531,3.9445 -1.05482,18.34095 -2.76006,33.20417 -1.70524,14.86322 -8.8252,30.19389 -2.44165,30.80724 6.38354,0.61334 26.26971,-13.49014 42.2427,-14.3868 15.97299,-0.89666 28.03001,11.41148 44.31973,15.99936 16.28972,4.58788 36.80541,1.45534 43.70488,-7.86144 6.89947,-9.31678 0.18015,-24.81434 2.99013,-36.15342 2.80998,-11.33908 15.14686,-18.51054 15.93152,-23.36975 0.78466,-4.85922 -9.98728,-7.40334 -18.62762,-3.47006 -8.64035,3.93329 -15.1504,14.34573 -30.48131,17.80877 -15.33091,3.46304 -39.47824,-0.0226 -58.17533,-5.01924 -18.69709,-4.9966 -31.93768,-11.50334 -36.70299,-7.55883 z"
         id="path1022-8-4-2" />
    </g>
  </g>
  <g
     id="layer3" />
</svg>
